<svg width="20" height="20" viewBox="0 0 20 20" fill="none" xmlns="http://www.w3.org/2000/svg">
<path fill-rule="evenodd" clip-rule="evenodd" d="M13.9293 14.9606C12.634 16.0266 10.975 16.6667 9.1665 16.6667C5.02437 16.6667 1.6665 13.3089 1.6665 9.16675C1.6665 5.02461 5.02437 1.66675 9.1665 1.66675C13.3086 1.66675 16.6665 5.02461 16.6665 9.16675C16.6665 10.9752 16.0264 12.6341 14.9605 13.9294L18.1577 17.1266C18.4425 17.4114 18.4425 17.8731 18.1577 18.1578C17.873 18.4426 17.4113 18.4426 17.1265 18.1578L13.9293 14.9606ZM15.2082 9.16675C15.2082 12.5035 12.5032 15.2084 9.1665 15.2084C5.82978 15.2084 3.12484 12.5035 3.12484 9.16675C3.12484 5.83003 5.82978 3.12508 9.1665 3.12508C12.5032 3.12508 15.2082 5.83003 15.2082 9.16675Z" fill="black" fill-opacity="0.5"/>
</svg>
